{
  "accessors": [
    {
      "bufferView": 2,
      "componentType": 5126,
      "count": 65532,
      "max": [
        1.4792189598083496,
        1.1721420288085938,
        10.132150650024414
      ],
      "min": [
        -1.4961260557174683,
        -0.63854998350143433,
        5.399169921875
      ],
      "type": "VEC3"
    },
    {
      "bufferView": 2,
      "byteOffset": 786384,
      "componentType": 5126,
      "count": 65532,
      "max": [
        0.99991059303283691,
        0.99996024370193481,
        0.99999642372131348
      ],
      "min": [
        -0.99998998641967773,
        -0.99999427795410156,
        -0.99996984004974365
      ],
      "type": "VEC3"
    },
    {
      "bufferView": 1,
      "componentType": 5126,
      "count": 65532,
      "max": [
        0,
        0
      ],
      "min": [
        0,
        0
      ],
      "type": "VEC2"
    },
    {
      "bufferView": 0,
      "componentType": 5125,
      "count": 390387,
      "max": [
        65531
      ],
      "min": [
        0
      ],
      "type": "SCALAR"
    },
    {
      "bufferView": 2,
      "byteOffset": 1572768,
      "componentType": 5126,
      "count": 65532,
      "max": [
        0.35939899086952209,
        1.2599869966506958,
        7.9207072257995605
      ],
      "min": [
        -0.30570301413536072,
        0.28487598896026611,
        4.7212181091308594
      ],
      "type": "VEC3"
    },
    {
      "bufferView": 2,
      "byteOffset": 2359152,
      "componentType": 5126,
      "count": 65532,
      "max": [
        0.99995583295822144,
        0.99999892711639404,
        0.99998855590820312
      ],
      "min": [
        -0.9999992847442627,
        -0.99997353553771973,
        -0.99998646974563599
      ],
      "type": "VEC3"
    },
    {
      "bufferView": 1,
      "byteOffset": 524256,
      "componentType": 5126,
      "count": 65532,
      "max": [
        0,
        0
      ],
      "min": [
        0,
        0
      ],
      "type": "VEC2"
    },
    {
      "bufferView": 0,
      "byteOffset": 1561548,
      "componentType": 5125,
      "count": 390042,
      "max": [
        65531
      ],
      "min": [
        0
      ],
      "type": "SCALAR"
    },
    {
      "bufferView": 2,
      "byteOffset": 3145536,
      "componentType": 5126,
      "count": 65532,
      "max": [
        1.5674619674682617,
        1.2653989791870117,
        8.8740100860595703
      ],
      "min": [
        -0.36215201020240784,
        -0.047940000891685486,
        3.4590001106262207
      ],
      "type": "VEC3"
    },
    {
      "bufferView": 2,
      "byteOffset": 3931920,
      "componentType": 5126,
      "count": 65532,
      "max": [
        0.99998122453689575,
        0.9999961256980896,
        0.9999879002571106
      ],
      "min": [
        -0.9999547004699707,
        -0.99999964237213135,
        -0.99999123811721802
      ],
      "type": "VEC3"
    },
    {
      "bufferView": 1,
      "byteOffset": 1048512,
      "componentType": 5126,
      "count": 65532,
      "max": [
        0,
        0
      ],
      "min": [
        0,
        0
      ],
      "type": "VEC2"
    },
    {
      "bufferView": 0,
      "byteOffset": 3121716,
      "componentType": 5125,
      "count": 389307,
      "max": [
        65531
      ],
      "min": [
        0
      ],
      "type": "SCALAR"
    },
    {
      "bufferView": 2,
      "byteOffset": 4718304,
      "componentType": 5126,
      "count": 65532,
      "max": [
        2.4534199237823486,
        1.2618520259857178,
        8.9458236694335938
      ],
      "min": [
        -2.1497139930725098,
        -1.2184180021286011,
        -5.6521420478820801
      ],
      "type": "VEC3"
    },
    {
      "bufferView": 2,
      "byteOffset": 5504688,
      "componentType": 5126,
      "count": 65532,
      "max": [
        0.99999505281448364,
        0.99998003244400024,
        0.99999123811721802
      ],
      "min": [
        -0.99999356269836426,
        -0.99999064207077026,
        -0.99995619058609009
      ],
      "type": "VEC3"
    },
    {
      "bufferView": 1,
      "byteOffset": 1572768,
      "componentType": 5126,
      "count": 65532,
      "max": [
        0,
        0
      ],
      "min": [
        0,
        0
      ],
      "type": "VEC2"
    },
    {
      "bufferView": 0,
      "byteOffset": 4678944,
      "componentType": 5125,
      "count": 388947,
      "max": [
        65531
      ],
      "min": [
        0
      ],
      "type": "SCALAR"
    },
    {
      "bufferView": 2,
      "byteOffset": 6291072,
      "componentType": 5126,
      "count": 65532,
      "max": [
        2.4998068809509277,
        1.2618520259857178,
        7.8509421348571777
      ],
      "min": [
        -2.5425169467926025,
        -1.2106930017471313,
        -5.6521420478820801
      ],
      "type": "VEC3"
    },
    {
      "bufferView": 2,
      "byteOffset": 7077456,
      "componentType": 5126,
      "count": 65532,
      "max": [
        0.99999958276748657,
        0.99998956918716431,
        0.9999920129776001
      ],
      "min": [
        -0.99999403953552246,
        -0.99998658895492554,
        -0.99996942281723022
      ],
      "type": "VEC3"
    },
    {
      "bufferView": 1,
      "byteOffset": 2097024,
      "componentType": 5126,
      "count": 65532,
      "max": [
        0,
        0
      ],
      "min": [
        0,
        0
      ],
      "type": "VEC2"
    },
    {
      "bufferView": 0,
      "byteOffset": 6234732,
      "componentType": 5125,
      "count": 389406,
      "max": [
        65531
      ],
      "min": [
        0
      ],
      "type": "SCALAR"
    },
    {
      "bufferView": 2,
      "byteOffset": 7863840,
      "componentType": 5126,
      "count": 39786,
      "max": [
        1.111361026763916,
        0.91001701354980469,
        8.6714773178100586
      ],
      "min": [
        -1.1194100379943848,
        -0.89738702774047852,
        2.238210916519165
      ],
      "type": "VEC3"
    },
    {
      "bufferView": 2,
      "byteOffset": 8341272,
      "componentType": 5126,
      "count": 39786,
      "max": [
        0.99999946355819702,
        0.99997693300247192,
        0.99996942281723022
      ],
      "min": [
        -0.9999697208404541,
        -0.99999415874481201,
        -0.99999916553497314
      ],
      "type": "VEC3"
    },
    {
      "bufferView": 1,
      "byteOffset": 2621280,
      "componentType": 5126,
      "count": 39786,
      "max": [
        0,
        0
      ],
      "min": [
        0,
        0
      ],
      "type": "VEC2"
    },
    {
      "bufferView": 0,
      "byteOffset": 7792356,
      "componentType": 5125,
      "count": 231495,
      "max": [
        39785
      ],
      "min": [
        0
      ],
      "type": "SCALAR"
    },
    {
      "bufferView": 2,
      "byteOffset": 8818704,
      "componentType": 5126,
      "count": 65532,
      "max": [
        1.401358962059021,
        1.0944939851760864,
        7.7931370735168457
      ],
      "min": [
        -1.401358962059021,
        -0.74599301815032959,
        3.1247959136962891
      ],
      "type": "VEC3"
    },
    {
      "bufferView": 2,
      "byteOffset": 9605088,
      "componentType": 5126,
      "count": 65532,
      "max": [
        0.99998539686203003,
        0.9999963641166687,
        0.99990522861480713
      ],
      "min": [
        -0.99998539686203003,
        -0.99999767541885376,
        -0.99999558925628662
      ],
      "type": "VEC3"
    },
    {
      "bufferView": 1,
      "byteOffset": 2939568,
      "componentType": 5126,
      "count": 65532,
      "max": [
        0,
        0
      ],
      "min": [
        0,
        0
      ],
      "type": "VEC2"
    },
    {
      "bufferView": 0,
      "byteOffset": 8718336,
      "componentType": 5125,
      "count": 390093,
      "max": [
        65531
      ],
      "min": [
        0
      ],
      "type": "SCALAR"
    },
    {
      "bufferView": 2,
      "byteOffset": 10391472,
      "componentType": 5126,
      "count": 24239,
      "max": [
        1.238023042678833,
        0.86792302131652832,
        4.9513068199157715
      ],
      "min": [
        -1.238023042678833,
        -0.42665299773216248,
        1.9728219509124756
      ],
      "type": "VEC3"
    },
    {
      "bufferView": 2,
      "byteOffset": 10682340,
      "componentType": 5126,
      "count": 24239,
      "max": [
        0.99980884790420532,
        0.9999849796295166,
        0.99998617172241211
      ],
      "min": [
        -0.99980884790420532,
        -0.99944138526916504,
        -0.99995934963226318
      ],
      "type": "VEC3"
    },
    {
      "bufferView": 1,
      "byteOffset": 3463824,
      "componentType": 5126,
      "count": 24239,
      "max": [
        0,
        0
      ],
      "min": [
        0,
        0
      ],
      "type": "VEC2"
    },
    {
      "bufferView": 0,
      "byteOffset": 10278708,
      "componentType": 5125,
      "count": 144147,
      "max": [
        24238
      ],
      "min": [
        0
      ],
      "type": "SCALAR"
    }
  ],
  "asset": {
    "extras": {
      "author": "Huargenn (https://sketchfab.com/Huargenn)",
      "license": "CC-BY-4.0 (http://creativecommons.org/licenses/by/4.0/)",
      "source": "https://sketchfab.com/models/c5c20626d35e4689b2f2d23c5b262171",
      "title": "Skeleton"
    },
    "generator": "Sketchfab-3.29.3",
    "version": "2.0"
  },
  "bufferViews": [
    {
      "buffer": 0,
      "byteLength": 10855296,
      "byteOffset": 0,
      "name": "floatBufferViews",
      "target": 34963
    },
    {
      "buffer": 0,
      "byteLength": 3657736,
      "byteOffset": 10855296,
      "byteStride": 8,
      "name": "floatBufferViews",
      "target": 34962
    },
    {
      "buffer": 0,
      "byteLength": 10973208,
      "byteOffset": 14513032,
      "byteStride": 12,
      "name": "floatBufferViews",
      "target": 34962
    }
  ],
  "buffers": [
    {
      "byteLength": 25486240,
      "uri": "scene.bin"
    }
  ],
  "images": [
    {
      "uri": "textures/Scene_-_Root_baseColor.jpg"
    }
  ],
  "materials": [
    {
      "doubleSided": true,
      "emissiveFactor": [
        0,
        0,
        0
      ],
      "name": "Scene_-_Root",
      "pbrMetallicRoughness": {
        "baseColorFactor": [
          1,
          1,
          1,
          1
        ],
        "baseColorTexture": {
          "index": 0,
          "texCoord": 0
        },
        "metallicFactor": 0,
        "roughnessFactor": 0.59999999999999998
      }
    }
  ],
  "meshes": [
    {
      "primitives": [
        {
          "attributes": {
            "NORMAL": 1,
            "POSITION": 0,
            "TEXCOORD_0": 2
          },
          "indices": 3,
          "material": 0,
          "mode": 4
        }
      ]
    },
    {
      "primitives": [
        {
          "attributes": {
            "NORMAL": 5,
            "POSITION": 4,
            "TEXCOORD_0": 6
          },
          "indices": 7,
          "material": 0,
          "mode": 4
        }
      ]
    },
    {
      "primitives": [
        {
          "attributes": {
            "NORMAL": 9,
            "POSITION": 8,
            "TEXCOORD_0": 10
          },
          "indices": 11,
          "material": 0,
          "mode": 4
        }
      ]
    },
    {
      "primitives": [
        {
          "attributes": {
            "NORMAL": 13,
            "POSITION": 12,
            "TEXCOORD_0": 14
          },
          "indices": 15,
          "material": 0,
          "mode": 4
        }
      ]
    },
    {
      "primitives": [
        {
          "attributes": {
            "NORMAL": 17,
            "POSITION": 16,
            "TEXCOORD_0": 18
          },
          "indices": 19,
          "material": 0,
          "mode": 4
        }
      ]
    },
    {
      "primitives": [
        {
          "attributes": {
            "NORMAL": 21,
            "POSITION": 20,
            "TEXCOORD_0": 22
          },
          "indices": 23,
          "material": 0,
          "mode": 4
        }
      ]
    },
    {
      "primitives": [
        {
          "attributes": {
            "NORMAL": 25,
            "POSITION": 24,
            "TEXCOORD_0": 26
          },
          "indices": 27,
          "material": 0,
          "mode": 4
        }
      ]
    },
    {
      "primitives": [
        {
          "attributes": {
            "NORMAL": 29,
            "POSITION": 28,
            "TEXCOORD_0": 30
          },
          "indices": 31,
          "material": 0,
          "mode": 4
        }
      ]
    }
  ],
  "nodes": [
    {
      "children": [
        1
      ],
      "name": "RootNode (gltf orientation matrix)",
      "rotation": [
        -0.70710678118654746,
        -0,
        -0,
        0.70710678118654757
      ]
    },
    {
      "children": [
        2
      ],
      "name": "RootNode (model correction matrix)"
    },
    {
      "children": [
        3,
        4,
        5,
        6,
        7,
        8,
        9,
        10
      ],
      "name": "9ccda17a963f4d50a03ee5f51a900251.obj.cleaner"
    },
    {
      "mesh": 0,
      "name": ""
    },
    {
      "mesh": 1,
      "name": ""
    },
    {
      "mesh": 2,
      "name": ""
    },
    {
      "mesh": 3,
      "name": ""
    },
    {
      "mesh": 4,
      "name": ""
    },
    {
      "mesh": 5,
      "name": ""
    },
    {
      "mesh": 6,
      "name": ""
    },
    {
      "mesh": 7,
      "name": ""
    }
  ],
  "samplers": [
    {
      "magFilter": 9729,
      "minFilter": 9987,
      "wrapS": 10497,
      "wrapT": 10497
    }
  ],
  "scene": 0,
  "scenes": [
    {
      "name": "OSG_Scene",
      "nodes": [
        0
      ]
    }
  ],
  "textures": [
    {
      "sampler": 0,
      "source": 0
    }
  ]
}

